<?xml version="1.0" standalone="no"?>
<!DOCTYPE svg PUBLIC "-//W3C//DTD SVG 20010904//EN"
 "http://www.w3.org/TR/2001/REC-SVG-20010904/DTD/svg10.dtd">
<svg version="1.0" xmlns="http://www.w3.org/2000/svg"
 width="262.000000pt" height="25.000000pt" viewBox="0 0 262.000000 25.000000"
 preserveAspectRatio="xMidYMid meet">
<metadata>
Created by potrace 1.10, written by Peter Selinger 2001-2011
</metadata>
<g transform="translate(0.000000,25.000000) scale(0.100000,-0.100000)"
fill="#daa520" stroke="none">
<path d="M810 181 c0 -24 -3 -28 -20 -24 -25 7 -60 -22 -60 -49 0 -41 19 -58
60 -56 l40 1 0 79 c0 45 -4 78 -10 78 -5 0 -10 -13 -10 -29z m-5 -76 c0 -23
-5 -31 -22 -33 -20 -3 -23 1 -23 33 0 32 3 36 23 33 17 -2 22 -10 22 -33z"/>
<path d="M1767 203 c-12 -11 -8 -23 8 -23 8 0 15 7 15 15 0 16 -12 20 -23 8z"/>
<path d="M2160 130 c0 -64 3 -80 15 -80 11 0 15 11 15 40 0 28 5 43 16 47 22
8 35 -15 31 -54 -2 -22 1 -33 10 -33 19 0 17 84 -2 100 -8 7 -25 10 -38 6 -21
-5 -23 -3 -19 24 3 23 0 30 -12 30 -13 0 -16 -13 -16 -80z"/>
<path d="M61 174 c-28 -35 -27 -75 2 -102 44 -42 113 -22 105 30 -2 18 -10 24
-35 26 -19 2 -33 -1 -33 -7 0 -6 9 -11 20 -11 13 0 20 -7 20 -20 0 -25 -41
-28 -64 -4 -41 40 -2 101 59 91 26 -4 35 -2 32 6 -2 7 -22 13 -44 15 -34 3
-44 -1 -62 -24z"/>
<path d="M1471 186 c-19 -22 -10 -47 24 -66 44 -24 39 -46 -9 -43 -33 2 -36 1
-26 -12 15 -18 61 -20 78 -3 23 23 14 55 -24 77 -41 24 -36 46 8 37 21 -4 28
-2 26 7 -7 18 -63 21 -77 3z"/>
<path d="M1640 176 c0 -8 -6 -17 -12 -19 -10 -4 -10 -7 0 -15 7 -4 12 -22 10
-38 -1 -16 1 -35 6 -42 9 -14 46 -16 46 -2 0 6 -7 10 -15 10 -10 0 -15 11 -15
35 0 24 5 35 15 35 8 0 15 5 15 10 0 6 -7 10 -15 10 -8 0 -15 7 -15 15 0 8 -4
15 -10 15 -5 0 -10 -6 -10 -14z"/>
<path d="M1880 176 c0 -8 -6 -17 -12 -19 -10 -4 -10 -8 -1 -14 6 -4 13 -26 15
-48 2 -33 7 -41 26 -43 12 -2 22 1 22 7 0 6 -7 11 -15 11 -10 0 -15 11 -15 35
0 24 5 35 15 35 8 0 15 5 15 10 0 6 -7 10 -15 10 -8 0 -15 7 -15 15 0 8 -4 15
-10 15 -5 0 -10 -6 -10 -14z"/>
<path d="M250 103 c0 -29 5 -53 10 -53 6 0 10 13 10 29 0 42 10 61 31 61 10 0
19 4 19 10 0 5 -16 9 -35 8 l-35 -1 0 -54z"/>
<path d="M397 154 c-14 -15 -6 -20 23 -16 23 3 30 0 30 -12 0 -9 -6 -16 -12
-15 -30 4 -46 -2 -52 -17 -10 -25 12 -43 50 -42 l35 1 -3 51 c-3 49 -4 51 -33
54 -17 2 -34 0 -38 -4z m53 -69 c0 -16 -35 -21 -44 -6 -8 12 4 21 26 21 10 0
18 -7 18 -15z"/>
<path d="M560 104 c0 -64 17 -73 22 -11 2 35 7 43 26 45 20 3 22 -1 22 -42 0
-26 5 -46 11 -46 6 0 9 21 7 53 l-3 52 -42 1 -43 2 0 -54z"/>
<path d="M926 138 c-21 -30 -20 -51 3 -72 20 -19 72 -19 78 0 2 6 -10 8 -30 6
-25 -3 -36 1 -40 12 -5 13 1 16 33 16 32 0 40 4 40 18 0 44 -58 57 -84 20z
m64 -10 c0 -7 -11 -14 -25 -14 -15 -1 -25 3 -25 12 0 8 10 14 25 14 14 0 25
-6 25 -12z"/>
<path d="M1090 124 c0 -57 14 -73 60 -71 l40 1 0 53 c0 36 -4 53 -12 53 -9 0
-13 -15 -13 -42 0 -37 -3 -43 -22 -46 -21 -3 -23 1 -23 42 0 34 -4 46 -15 46
-11 0 -15 -11 -15 -36z"/>
<path d="M1270 103 c0 -40 4 -53 15 -53 11 0 15 11 15 41 0 32 4 42 20 46 32
9 23 21 -15 20 l-35 -1 0 -53z"/>
<path d="M1767 153 c-2 -5 -4 -29 -5 -55 -1 -36 2 -48 13 -48 11 0 15 13 15
55 0 48 -11 71 -23 48z"/>
<path d="M2016 145 c-19 -20 -21 -55 -3 -79 15 -20 68 -19 75 1 2 9 -5 11 -26
7 -23 -5 -30 -2 -34 14 -9 32 10 55 39 47 18 -4 24 -2 21 7 -7 20 -53 21 -72
3z"/>
<path d="M2350 141 c-14 -28 -12 -67 4 -80 17 -14 82 -11 78 3 -1 6 -16 10
-34 10 -49 1 -48 26 1 26 33 0 41 4 41 18 0 42 -70 60 -90 23z m64 -10 c3 -5
-6 -11 -19 -14 -25 -4 -40 4 -28 17 9 9 41 7 47 -3z"/>
<path d="M2520 145 c-15 -18 -1 -40 31 -50 25 -8 14 -25 -17 -25 -13 0 -24 -4
-24 -10 0 -14 54 -12 68 2 19 19 14 38 -13 48 -30 11 -33 30 -5 30 11 0 20 5
20 10 0 16 -46 12 -60 -5z"/>
</g>
</svg>
